# xmcd CD database file
#
# Track frame offsets:
#	150
#	4764
#	33797
#	70881
#	75336
#	99320
#	111387
#	120733
#	140668
#	169634
#	178874
#	182479
#	185673
#
# Disc length: 2537 seconds
#
# Revision: 0
# Processed by: cddbd v1.4PL0 Copyright (c) Steve Scherf et al.
# Submitted via: CDex 1.50
#
DISCID=a609e70d
DTITLE=Esteban Sehinkman Quintet - La Espuma de los Días
DYEAR=2002
DGENRE=Jazz
TTITLE0=Intro
TTITLE1=Matadores
TTITLE2=October
TTITLE3=La Brava
TTITLE4=Voodoo Love
TTITLE5=Pesante
TTITLE6=Seven Colors
TTITLE7=Blue Flower
TTITLE8=Froth of the Days
TTITLE9=Denise
TTITLE10=Humoresque for Piano 1
TTITLE11=Humoresque for Piano 2
TTITLE12=Humoresque for Piano 3
EXTD=YEAR: 2002
EXTT0=
EXTT1=
EXTT2=
EXTT3=
EXTT4=
EXTT5=
EXTT6=
EXTT7=
EXTT8=
EXTT9=
EXTT10=
EXTT11=
EXTT12=
PLAYORDER=
